<svg width="110" height="31" viewBox="0 0 110 31" fill="none" xmlns="http://www.w3.org/2000/svg">
<g clip-path="url(#clip0_51_905)">
<path d="M11.6918 9.90625L0.727224 10.9625C0.623445 10.9626 0.520869 10.9852 0.426275 11.0289C0.33168 11.0725 0.247234 11.1362 0.178496 11.2158C0.109757 11.2953 0.0582942 11.3888 0.0275268 11.4902C-0.00324064 11.5915 -0.0126079 11.6984 1.85636e-05 11.8038V29.7925C1.85636e-05 30.3059 0.242409 30.5392 0.727224 30.4925L4.33156 30.145C4.43523 30.1449 4.53769 30.1223 4.63219 30.0787C4.7267 30.0351 4.81109 29.9716 4.87981 29.8922C4.94852 29.8128 5 29.7195 5.03085 29.6182C5.0617 29.517 5.07123 29.4103 5.05879 29.305V23.7163L11.2371 23.1213C11.3409 23.1212 11.4435 23.0986 11.5381 23.0549C11.6327 23.0113 11.7171 22.9475 11.7859 22.868C11.8546 22.7885 11.9061 22.695 11.9368 22.5936C11.9676 22.4923 11.977 22.3854 11.9643 22.28V18.9725C11.9643 18.4575 11.7199 18.2225 11.2371 18.2713L5.05879 18.8663V15.3963L11.6918 14.7575C11.7953 14.7572 11.8977 14.7345 11.992 14.6908C12.0864 14.6472 12.1706 14.5836 12.2392 14.5042C12.3078 14.4249 12.3592 14.3316 12.3899 14.2304C12.4207 14.1293 12.4302 14.0227 12.4178 13.9175V10.6088C12.4178 10.0946 12.1758 9.86042 11.6918 9.90625Z" fill="white"/>
<path d="M42.2999 7.50625C42.249 7.33538 42.1355 7.19129 41.9831 7.10414C41.8307 7.01699 41.6511 6.99355 41.4822 7.03876L38.3374 7.34C38.153 7.33803 37.973 7.39815 37.8253 7.51109C37.6775 7.62403 37.5702 7.78352 37.5198 7.965L30.3086 27.0013C30.3013 27.0213 30.2976 27.0375 30.2927 27.0563L26.3817 20.3125C27.387 19.7277 28.2241 18.8825 28.8089 17.862C29.3938 16.8415 29.7057 15.6816 29.7134 14.4987C29.7134 10.7737 26.7459 8.45625 22.6245 8.85375L15.2338 9.56626C15.13 9.56635 15.0274 9.58898 14.9328 9.63263C14.8382 9.67629 14.7538 9.73996 14.685 9.81948C14.6163 9.899 14.5648 9.99254 14.5341 10.0939C14.5033 10.1953 14.4939 10.3022 14.5065 10.4075V28.3963C14.5065 28.9096 14.749 29.1429 15.2338 29.0963L18.656 28.7662C18.7596 28.7661 18.8621 28.7436 18.9566 28.7C19.0511 28.6564 19.1355 28.5928 19.2042 28.5134C19.273 28.4341 19.3244 28.3407 19.3553 28.2395C19.3861 28.1383 19.3956 28.0315 19.3832 27.9262V21.8225L21.6846 21.6012L25.168 27.6588C25.2452 27.8056 25.3659 27.9237 25.5128 27.996C25.6597 28.0683 25.8253 28.0912 25.9857 28.0612L30.0447 27.67C30.1229 27.5917 30.2251 27.5433 30.3342 27.5328C30.4432 27.5223 30.5524 27.5505 30.6435 27.6125L34.5815 27.2375C34.7743 27.2391 34.9621 27.1752 35.1155 27.0557C35.2688 26.9362 35.379 26.768 35.4286 26.5775L36.3073 23.9875L43.5184 23.2925L44.3972 25.7138C44.4464 25.8941 44.5628 26.0475 44.7214 26.141C44.88 26.2345 45.0682 26.2606 45.2454 26.2138L49.1822 25.8388C49.5758 25.8013 49.6968 25.565 49.5489 25.1612L42.2999 7.50625ZM22.3777 17.5525L19.3795 17.8413V13.1512L22.3777 12.8625C22.6774 12.8071 22.9853 12.8205 23.2794 12.9016C23.5734 12.9827 23.8462 13.1295 24.0781 13.3315C24.3099 13.5334 24.495 13.7855 24.6201 14.0695C24.7452 14.3535 24.8071 14.6623 24.8013 14.9737C24.7943 15.6385 24.5395 16.2754 24.0888 16.7544C23.6381 17.2335 23.0256 17.5185 22.3764 17.5513L22.3777 17.5525ZM37.7263 19.7025L39.9068 13.3275L42.0872 19.285L37.7263 19.7025Z" fill="white"/>
<path d="M66.3715 4.63999L62.7672 4.98747C62.6634 4.98756 62.5609 5.01019 62.4663 5.05384C62.3717 5.0975 62.2872 5.16121 62.2185 5.24073C62.1498 5.32024 62.0983 5.41375 62.0675 5.51512C62.0367 5.61648 62.0274 5.72337 62.04 5.82872V15.4663L54.8008 6.23747C54.6942 6.09075 54.5504 5.97674 54.3849 5.90776C54.2194 5.83879 54.0386 5.81749 53.8621 5.84623L51.5301 6.07122C51.4263 6.07132 51.3238 6.09395 51.2292 6.1376C51.1346 6.18125 51.0501 6.24496 50.9814 6.32448C50.9126 6.404 50.8612 6.49751 50.8304 6.59887C50.7996 6.70024 50.7902 6.80713 50.8029 6.91248V24.905C50.8029 25.4183 51.0453 25.6517 51.5301 25.605L55.1344 25.2575C55.2382 25.2574 55.3408 25.2348 55.4354 25.1911C55.53 25.1474 55.6144 25.0838 55.6832 25.0043C55.7519 24.9247 55.8034 24.8312 55.8341 24.7298C55.8649 24.6285 55.8743 24.5216 55.8617 24.4163V14.78L63.0997 24.0087C63.2068 24.1551 63.3509 24.2689 63.5165 24.3379C63.6821 24.4068 63.8629 24.4283 64.0396 24.4L66.3715 24.175C66.4751 24.1747 66.5775 24.152 66.6718 24.1083C66.7662 24.0647 66.8504 24.0011 66.919 23.9217C66.9876 23.8424 67.0389 23.749 67.0697 23.6479C67.1005 23.5468 67.11 23.4401 67.0975 23.335V5.34124C67.0975 4.82708 66.8555 4.59332 66.3715 4.63999Z" fill="white"/>
<path d="M70.5442 23.7675L74.1485 23.42C74.2522 23.4199 74.3547 23.3973 74.4492 23.3537C74.5437 23.3102 74.6281 23.2466 74.6968 23.1672C74.7655 23.0878 74.817 22.9944 74.8478 22.8932C74.8787 22.792 74.8882 22.6853 74.8758 22.58V15.0313L80.0238 22.3738C80.1304 22.5284 80.2791 22.6476 80.4514 22.7165C80.6238 22.7854 80.8121 22.801 80.993 22.7613L85.9906 22.28C86.3842 22.2425 86.5064 21.905 86.2938 21.6413L79.2367 12.7813L85.7144 3.35503C85.9271 3.04378 85.8367 2.76375 85.4419 2.8025L80.4748 3.28125C80.2763 3.29091 80.0834 3.35168 79.9139 3.45787C79.7445 3.56406 79.604 3.71228 79.5055 3.88878L74.8721 11.37V4.59125C74.8721 4.0775 74.6276 3.84125 74.1449 3.89L70.5405 4.23752C70.4368 4.23761 70.3342 4.26024 70.2396 4.30389C70.145 4.34755 70.0605 4.41122 69.9918 4.49074C69.923 4.57025 69.8716 4.6638 69.8408 4.76517C69.8101 4.86653 69.8007 4.97342 69.8133 5.07877V23.0638C69.8158 23.5796 70.0594 23.8142 70.5442 23.7675Z" fill="white"/>
<path d="M88.3166 22.055L92.0725 21.6937C92.176 21.6934 92.2784 21.6707 92.3727 21.6271C92.4671 21.5834 92.5513 21.5198 92.6199 21.4405C92.6885 21.3611 92.7398 21.2678 92.7706 21.1667C92.8014 21.0655 92.8109 20.9589 92.7985 20.8537V2.86499C92.7985 2.35166 92.5565 2.11791 92.0725 2.16374L88.3166 2.52499C88.2128 2.52509 88.1102 2.54771 88.0156 2.59137C87.921 2.63502 87.8366 2.69869 87.7679 2.77821C87.6991 2.85773 87.6476 2.95127 87.6169 3.05264C87.5861 3.15401 87.5768 3.2609 87.5894 3.36625V21.355C87.5894 21.8683 87.8318 22.1016 88.3166 22.055Z" fill="white"/>
<path d="M109.273 0.50615L95.5839 1.82489C95.4801 1.82499 95.3775 1.84761 95.2829 1.89127C95.1883 1.93492 95.1039 1.99863 95.0351 2.07815C94.9664 2.15767 94.9149 2.25117 94.8842 2.35254C94.8534 2.45391 94.844 2.5608 94.8566 2.66615V6.32864C94.8566 6.8428 95.0991 7.07656 95.5839 7.02989L99.8237 6.62115V20.1774C99.8237 20.6907 100.066 20.9241 100.551 20.8774L104.307 20.5149C104.411 20.5148 104.513 20.4922 104.607 20.4486C104.702 20.405 104.786 20.3415 104.855 20.2621C104.924 20.1827 104.975 20.0893 105.006 19.9881C105.037 19.8869 105.047 19.7801 105.034 19.6749V6.11864L109.274 5.70989C109.378 5.7098 109.48 5.68717 109.575 5.64352C109.67 5.59986 109.754 5.53619 109.823 5.45667C109.891 5.37716 109.943 5.28361 109.974 5.18224C110.004 5.08088 110.014 4.97399 110.001 4.86864V1.20615C110 0.693647 109.757 0.4599 109.273 0.50615Z" fill="white"/>
<path d="M4.76558 6.44001L41.7342 2.87876C42.0223 2.83834 42.2854 2.68934 42.4717 2.46094C42.6581 2.23253 42.7544 1.94119 42.7417 1.64398C42.729 1.34678 42.6082 1.0651 42.4031 0.854187C42.198 0.643274 41.9232 0.518293 41.6327 0.503731H1.24925C0.911896 0.510302 0.590878 0.653522 0.356681 0.901947C0.122485 1.15037 -0.00573341 1.48373 0.000156487 1.82877C-0.0117742 2.46025 0.105363 3.08731 0.344074 3.66982C0.582785 4.25232 0.937805 4.77744 1.3864 5.21152C1.835 5.64561 2.36729 5.9791 2.94919 6.19064C3.53108 6.40219 4.14974 6.48712 4.76558 6.44001Z" fill="white"/>
<path d="M105.235 24.5587L68.266 28.1212C67.9778 28.1617 67.7148 28.3107 67.5284 28.5391C67.342 28.7675 67.2458 29.0588 67.2585 29.356C67.2712 29.6532 67.3919 29.9349 67.597 30.1458C67.8022 30.3567 68.0769 30.4817 68.3674 30.4962H108.751C109.088 30.4897 109.409 30.3464 109.643 30.098C109.878 29.8496 110.006 29.5163 110 29.1712C110.012 28.5397 109.895 27.9126 109.656 27.33C109.417 26.7475 109.062 26.2223 108.614 25.7881C108.165 25.3539 107.633 25.0203 107.051 24.8086C106.469 24.5969 105.85 24.5118 105.235 24.5587Z" fill="white"/>
</g>
<defs>
<clipPath id="clip0_51_905">
<rect width="110" height="30" fill="white" transform="translate(0 0.5)"/>
</clipPath>
</defs>
</svg>
