<svg width="96" height="99" viewBox="0 0 96 99" fill="none" xmlns="http://www.w3.org/2000/svg">
<g clip-path="url(#clip0_0_582)">
<path d="M2.2464 82.0081L13.3776 80.997C14.8752 80.8628 15.624 80.0482 15.624 78.5531V62.3039L34.7088 60.574C36.2064 60.4399 36.9552 59.6252 36.9552 58.1302V48.5129C36.9552 47.0178 36.2064 46.3374 34.7088 46.4716L15.624 48.2014V38.1146L36.1104 36.2553C37.608 36.1211 38.352 35.3065 38.352 33.8115V24.1894C38.352 22.6991 37.6032 22.0139 36.1104 22.1528L2.2464 25.2244C0.7488 25.3586 0 26.178 0 27.6731V79.9715C0 81.4666 0.7488 82.1422 2.2464 82.0081Z" fill="white"/>
<path d="M58.1664 20.1546L47.0352 21.1657C45.5376 21.2999 44.7888 22.1193 44.7888 23.6143V75.9128C44.7888 77.4078 45.5376 78.0835 47.0352 77.9493L58.1664 76.9382C59.664 76.8041 60.4128 75.9895 60.4128 74.4944V52.5476L76.3152 73.8954C77.064 74.8538 77.9088 75.1509 79.3104 75.0215L94.7472 73.6223C95.9616 73.5121 96.3408 72.5441 95.6832 71.763L73.8864 46.0019L93.9072 18.5972C94.5648 17.6964 94.2816 16.8818 93.0672 16.992L77.7264 18.3816C76.32 18.5062 75.48 19.0525 74.7312 20.1498L60.4176 41.9001V22.1911C60.4176 20.7009 59.6688 20.0156 58.1712 20.1546" fill="white"/>
<path d="M10.6992 12.5547L93.7056 5.02667C96.9072 4.73437 96.6912 0 93.4752 0H2.8032C1.2576 0 0 1.25547 0 2.79845C0 8.55828 4.9536 13.077 10.6992 12.5547Z" fill="white"/>
<path d="M85.3008 86.4454L2.29437 93.9735C-0.90723 94.2658 -0.69123 99.0001 2.52477 99.0001H93.1968C94.7424 99.0001 96 97.7447 96 96.2017C96 90.4418 91.0464 85.9231 85.3008 86.4454Z" fill="white"/>
</g>
<defs>
<clipPath id="clip0_0_582">
<rect width="96" height="99" fill="white"/>
</clipPath>
</defs>
</svg>
